<?xml version="1.0" encoding="UTF-8"?>
<svg id="Layer_2" data-name="Layer 2" xmlns="http://www.w3.org/2000/svg" xmlns:xlink="http://www.w3.org/1999/xlink" viewBox="0 0 306.94 34.96">
  <defs>
    <style>
      .cls-1 {
        fill:#FFCC00;
        stroke-width: 0px;
      }

      .cls-2 {
        opacity: .29;
      }

      .cls-3 {
        opacity: .4;
      }
    </style>
  </defs>
  <g id="_01Menu-Drive" data-name="01Menu-Drive">
    <g id="LOGO">
      <g id="Citroen-4" data-name="Citroen">
        <g id="Citroen-5" data-name="Citroen">
          <path class="cls-1" d="m88.93,30.01h-5.06c-.03-.36-.08-.68-.08-1,0-6.69.02-13.38-.02-20.08,0-.97.27-1.25,1.24-1.25,6.95.04,13.9-.02,20.85.05,1.37.01,2.79.28,4.09.72,4.33,1.47,5.25,6.51,3.63,9.68-.66,1.29-1.7,2.19-3.08,2.48-1.82.39-3.69.59-5.53.85-.38.05-.78,0-1.16,0-.04.1-.07.19-.11.29,3.84,2.65,7.68,5.3,11.71,8.08-.44.14-.68.24-.94.29-.21.04-.44-.01-.66.02-3.77.51-6.94-.5-9.9-3.03-3.01-2.57-6.43-4.65-9.66-6.95-.36-.26-.8-.48-1.02-.83-.25-.39-.47-.96-.37-1.37.07-.27.72-.56,1.11-.57,4.15-.05,8.31-.06,12.46-.04.99,0,1.72-.33,2.13-1.24.43-.96.57-1.98-.21-2.78-.42-.43-1.1-.84-1.66-.85-5.55-.07-11.1-.04-16.66-.07-.85,0-1.13.26-1.12,1.14.04,5,.02,10,.02,15,0,.44,0,.87,0,1.44Z"/>
          <path class="cls-1" d="m159.58,7.85h26.67v4.48h-21.56v4.28h19v4.31h-19.05v4.63h21.68v4.46h-26.75V7.85Z"/>
          <path class="cls-1" d="m136.71,7.47c2.97-.1,5.94-.33,8.84.68,5.8,2.03,8.04,7.39,7.73,11.48-.41,5.53-3.81,9.44-9.35,10.69-.68.15-1.38.3-2.07.31-3.64.03-7.29.22-10.91-.06-3.46-.27-6.57-1.66-8.75-4.55-2.1-2.78-2.97-5.93-2.11-9.34,1.44-5.78,5.68-9.07,11.65-9.21,1.65-.04,3.31,0,4.96,0Zm.14,18.59c1.64-.13,3.83-.14,5.95-.53,3-.55,5.01-3.46,4.92-6.7-.09-3.48-2.04-6.18-5.14-6.64-3.86-.57-7.77-.6-11.63-.04-3.54.52-5.53,3.33-5.41,7.17.11,3.48,2.31,6.01,5.74,6.43,1.67.2,3.37.19,5.58.3Z"/>
          <path class="cls-1" d="m222.44,30.13c-1.51,0-2.94-.01-4.37,0-.84.01-.7-.59-.7-1.08-.01-3.27,0-6.55-.02-9.82,0-.7-.05-1.4-.16-2.08-.46-2.86-2.6-4.69-5.49-4.7-4.08-.01-8.17.03-12.25-.03-1-.01-1.22.31-1.21,1.26.05,4.93.02,9.86.02,14.78,0,.51,0,1.01,0,1.6h-4.94c-.04-.34-.12-.68-.13-1.03-.03-6.62-.06-13.24-.05-19.86,0-1.48.06-1.48,1.56-1.48,5.55,0,11.11,0,16.66,0,2.75,0,5.32.64,7.56,2.32,2.57,1.93,3.54,4.64,3.59,7.71.07,3.93.02,7.87.02,11.8,0,.14-.05.28-.11.58Z"/>
          <path class="cls-1" d="m29.96,12.35c-.59,0-1.02,0-1.45,0-5.33.01-10.67,0-16,.04-2.63.02-4.9.95-6.22,3.31-1.66,2.98-1.28,8.02,3.98,9.42,1.19.32,2.47.42,3.71.43,4.93.05,9.86.05,14.79,0,1-.01,1.3.3,1.21,1.25-.07.8-.03,1.62-.02,2.43,0,.65-.31.93-.95.92-6.18-.09-12.35-.12-18.53-.28-2.13-.05-4.1-.85-5.87-2.05C.72,25.18-.51,21.41.18,16.94c.64-4.11,3.27-6.66,6.96-8.14,1.33-.53,2.85-.8,4.29-.84,5.66-.16,11.32-.18,16.99-.24,1.47-.02,1.52.05,1.52,1.57,0,.95,0,1.9,0,3.06Z"/>
          <path class="cls-1" d="m60.74,30.13V12.22c-.99,0-1.79,0-2.59,0-2.91,0-5.81-.02-8.71.01-.96.01-1.44-.26-1.36-1.31.08-.98.02-1.98.02-3.09.45-.03.84-.07,1.23-.07,9.3,0,18.61,0,27.91-.02.9,0,1.26.22,1.19,1.16-.08,1.05-.02,2.11-.02,3.33-2.02,0-3.89,0-5.75,0-1.91,0-3.83.04-5.74-.02-.84-.03-1.06.25-1.06,1.06.03,5.22-.01,10.44.04,15.66,0,.98-.25,1.29-1.23,1.23-1.24-.09-2.49-.02-3.92-.02Z"/>
          <path class="cls-1" d="m42.71,30.15c-1.47,0-2.86,0-4.25,0-.86,0-.86-.59-.86-1.22,0-2.64,0-5.29,0-7.93,0-4,.02-8-.02-12,0-1,.31-1.4,1.34-1.33.99.07,1.98.04,2.97,0,.58-.02.89.13.89.78.01,7.05.04,14.09.05,21.14,0,.14-.06.28-.13.55Z"/>
          <path class="cls-1" d="m179.16,2c1.18,0,2.35-.03,3.53,0,1.15.04,1.83.67,1.85,1.63.02.98-.73,1.76-1.84,1.78-2.31.03-4.63.03-6.94,0-1.05-.01-1.94-.85-1.94-1.73,0-.94.78-1.65,1.94-1.69,1.14-.03,2.28,0,3.42,0h0Z"/>
          <path class="cls-1" d="m166.64,1.99c1.17,0,2.35-.02,3.52,0,1.17.03,1.78.61,1.79,1.63,0,1.06-.65,1.77-1.8,1.78-2.31.04-4.62.03-6.92.01-1.02,0-1.91-.87-1.9-1.75.02-.96.8-1.67,1.91-1.69,1.14-.02,2.27,0,3.41,0h0Z"/>
        </g>
        <path id="XM" class="cls-1" d="m231.64,17.48v17.48h75.3V0h-75.3v17.48Zm46.97-12.58c.31.43.23,1.33-.15,1.68-.46.41-4.19,2.19-4.61,2.19-.17,0-.43.11-.57.23-.14.14-1.13.67-2.19,1.22-2.51,1.27-4.88,2.52-5.09,2.69-.09.08-.63.38-1.19.67-.55.31-1.33.75-1.74.99-.4.24-1.16.69-1.71.99-1.45.81-1.99,1.38-1.99,2.08,0,.32.12.7.28.87.8.92,4.18,3.47,5.8,4.39.23.12.84.47,1.35.76,2.88,1.68,6.27,3.01,9.16,3.58,1.91.38,6.35.47,7.66.17,1.5-.35,1.81-.35,2.26,0,.52.41.52.61.03,1.21-.52.6-2.14,1.12-5.58,1.79-2.48.47-7.04.11-10.17-.84-.92-.28-4.13-1.58-4.36-1.76-.12-.11-.75-.44-1.38-.75-2.6-1.22-5.08-2.88-7.59-5.03-.95-.83-1.85-1.5-1.99-1.5-.21,0-2.62,1.62-4.04,2.72-2.2,1.71-4.3,3.44-4.68,3.87-.89,1.01-2.29,2.19-2.94,2.46-.92.41-1.56.26-2.94-.69-1.42-.99-1.59-1.36-1.07-2.33.2-.37.63-.9.96-1.18.32-.28.75-.64.92-.83.18-.17.67-.55,1.1-.84.41-.29.86-.63.99-.76.4-.43,1.55-1.29,3.44-2.57,4.36-2.95,4.5-3.08,4.41-3.6-.05-.2-.37-.66-.72-1.03-.72-.75-2.97-3.35-4.64-5.35-.61-.73-1.15-1.5-1.21-1.73-.14-.6.35-2.52.83-3.23.23-.34.57-.63.75-.66.46-.06,1.53.5,1.65.89.05.17.15.31.23.31.06,0,.4.37.72.8.81,1.12,3.84,4.53,5.13,5.77,1.06,1.04,1.81,1.55,2.26,1.55.24,0,.75-.26,1.3-.69,1.12-.87,5.46-3.27,8.26-4.56,2.46-1.15,4.34-1.94,4.53-1.94.08,0,.47-.15.87-.35.41-.2,1.64-.64,2.72-.99,1.09-.34,2.28-.72,2.66-.86.84-.28,1.99-.18,2.26.17h0Zm5.03,9c.7.29,1.06.61,1.51,1.33.2.31.5.7.7.87.18.18.41.55.5.83.24.76.73.73,1.59-.08.72-.69,2.46-2.1,3.34-2.69.32-.23.7-.34,1.24-.34,1.01,0,1.35.28,4.1,3.32,1.22,1.38,2.33,2.49,2.45,2.49.11,0,.54-.08.93-.15.81-.17,1.55-.03,1.77.32.31.47-.02.98-1.07,1.7-1.77,1.22-2.74,1.65-3.63,1.65-1.27,0-1.91-.57-3.95-3.55-.44-.66-.9-1.22-1.03-1.27-.14-.06-.63.31-1.3.96-2.6,2.51-4.15,3.58-5.51,3.78-.83.12-1.42-.21-2-1.16-.43-.67-1.06-2.22-1.24-3.12-.11-.5-.21-.63-.54-.66-.29-.03-.49.06-.7.32-.15.2-.44.44-.64.55s-1.07.73-1.94,1.41c-.87.66-1.65,1.21-1.73,1.21s-.21.09-.31.21c-.09.11-.76.5-1.5.87-1.16.58-1.45.67-2.31.67s-1.03-.05-1.3-.41-.29-.47-.12-1.15c.09-.4.31-1.04.46-1.42.47-1.13.64-1.79.54-2.05-.11-.28-.9-.34-1.06-.09-.12.18-.54.2-.81.02-.15-.09-.18-.32-.11-.87.09-.63.23-.87.83-1.44,1.09-1.04,3.44-2.14,4.59-2.14,1.06,0,1.61.83,1.44,2.13-.11.76.18.95.83.5,1.06-.72,1.68-1.1,1.79-1.1.06,0,.61-.32,1.21-.72.93-.6,1.48-.83,2.29-.95.06,0,.37.09.67.21h0Z"/>
      </g>
    </g>
  </g>
</svg>